<?xml version="1.0" encoding="UTF-8"?>
<svg id="_レイヤー_2" data-name="レイヤー 2" xmlns="http://www.w3.org/2000/svg" viewBox="0 0 503.44 512">
  <defs>
    <style>
      .cls-1 {
        fill: #fff;
      }

      .cls-2 {
        fill:rgb(0, 0, 0);
      }
    </style>
  </defs>
  <g id="_10" data-name="10">
    <path class="cls-2" d="M358.74,0h-214.05C64.78,0,0,64.78,0,144.7v222.61c0,79.91,64.78,144.7,144.69,144.7h214.05c79.91,0,144.7-64.78,144.7-144.7v-222.61c0-79.91-64.78-144.69-144.69-144.69ZM51.37,144.7c0-51.46,41.86-93.32,93.32-93.32h214.05c51.46,0,93.32,41.86,93.32,93.32v222.61c0,51.46-41.86,93.32-93.32,93.32h-214.05c-51.46,0-93.32-41.86-93.32-93.32v-222.61Z"/>
    <circle class="cls-2" cx="345.49" cy="187.79" r="42.67"/>
    <path class="cls-2" d="M373.68,306.09c-10.28-10.15-21.81-19.03-34.35-26.38-10.45,38.58-45.76,67.04-87.6,67.04s-77.15-28.46-87.6-67.04c-12.54,7.35-24.08,16.22-34.35,26.38,19.76,47.93,66.98,81.76,121.96,81.76s102.2-33.83,121.96-81.76Z"/>
    <g>
      <path class="cls-2" d="M124.26,322.04c-1.73,0-3.49-.45-5.08-1.4-4.75-2.81-6.33-8.95-3.51-13.7l1.28-2.17c11.06-18.7,31.43-30.32,53.16-30.32,5.52,0,10,4.48,10,10s-4.48,10-10,10c-14.69,0-28.47,7.86-35.95,20.5l-1.29,2.17c-1.87,3.16-5.2,4.91-8.62,4.91Z"/>
      <path class="cls-2" d="M379.18,321.44c-3.42,0-6.75-1.75-8.62-4.91l-1.28-2.17c-7.48-12.65-21.25-20.5-35.95-20.5-5.52,0-10-4.48-10-10s4.48-10,10-10c21.73,0,42.1,11.62,53.16,30.32l1.28,2.17c2.81,4.75,1.24,10.89-3.51,13.7-1.6.95-3.35,1.4-5.08,1.4Z"/>
    </g>
    <circle class="cls-1" cx="356.5" cy="193.26" r="18.65"/>
  </g>
</svg>